# xmcd CD database file
#
# Track frame offsets:
#	150
#	20558
#	33543
#	53268
#	68002
#	80484
#	94550
#	106275
#	123030
#	134143
#	153998
#	166924
#	186894
#	205040
#	218154
#
# Disc length: 3152 seconds
#
# Revision: 0
# Processed by: cddbd v1.5PL3 Copyright (c) Steve Scherf et al.
# Submitted via: CDex 1.50
#
DISCID=c00c4e0f
DTITLE=Various Artist - Contry Legends Vol 3
DYEAR=1900
DGENRE=Country
TTITLE0=Sunday Mornin' Commin' Down   Kris Kristofferson
TTITLE1=Okie From Muskogee    Merle Haggard
TTITLE2=If I Said You Had A Beautiful Body  Bellamy Brothers
TTITLE3=For The Good Times   Kenny Rodgers
TTITLE4=Ruby Tuesday   Don Williams
TTITLE5=Good Year For The Roses  George Jones
TTITLE6=Crying  Waylon Jennings
TTITLE7=The Night They Drove Old Dixie Down   Tanya Tucker
TTITLE8=Blue Bayou   Roy Orbison
TTITLE9=Just Call Me Lonesome   Jim Reeves
TTITLE10=All the Girls  Rascal
TTITLE11=See You Smile  Simon Alpin
TTITLE12=Indian Summer   Hijalti
TTITLE13=Awkward Waltz  The Buffalo's
TTITLE14=Down To You  Bother Carter
EXTD=
EXTT0=
EXTT1=
EXTT2=
EXTT3=
EXTT4=
EXTT5=
EXTT6=
EXTT7=
EXTT8=
EXTT9=
EXTT10=
EXTT11=
EXTT12=
EXTT13=
EXTT14=
PLAYORDER=
